<?xml version="1.0" encoding="UTF-8"?>
<svg version="1.1" xmlns="http://www.w3.org/2000/svg" width="1620" height="1620">
<path d="M0 0 C2.65864116 0.00564374 5.31727593 0.00846195 7.97592163 0.0110817 C32.40305589 0.04607677 56.718727 0.25059823 81.01272583 3.06158829 C83.39022083 3.3349563 85.76892474 3.59532719 88.14804077 3.85419083 C167.5633036 12.57642342 245.29261374 32.14451855 361.3321228 82.88592911 C364.1758757 84.28491053 367.0256464 85.67100839 369.87606812 87.05633926 C383.30197326 93.62613446 396.32719645 100.79994689 409.24325562 108.31805801 C410.20505737 108.87412735 411.16685913 109.43019669 412.1578064 110.00311661 C425.54929091 117.77227318 438.55495063 126.04226709 451.43075562 134.63055801 C452.46169342 135.31769379 452.46169342 135.31769379 453.51345825 136.01871109 C466.5399437 144.71806964 479.31288968 153.71881033 491.74325562 163.25555801 C492.64052368 163.94230606 493.53779175 164.62905411 494.46224976 165.3366127 C497.0586379 167.32692082 499.65165418 169.32152275 502.24325562 171.31805801 C502.93016479 171.84609024 503.61707397 172.37412247 504.32479858 172.91815567 C512.60733442 179.29809188 520.60426809 185.95659199 528.49765015 192.8107338 C530.22513536 194.30241124 531.96415777 195.77926327 533.70809937 197.25165176 C541.79844501 204.09347321 549.59065862 211.20362154 557.29159546 218.47967911 C559.29556102 220.36732743 561.30904023 222.24431882 563.32528687 224.11883926 C584.02309593 243.37981217 584.02309593 243.37981217 592.60263062 253.45868301 C594.40473351 255.50106629 596.30264509 257.40707513 598.24325562 259.31805801 C602.12352005 263.15397657 605.69220851 267.1784761 609.24325562 271.31805801 C610.22300076 272.44629096 611.20353977 273.57383477 612.18466187 274.70087051 C615.54714043 278.5649929 618.89801182 282.43900931 622.24325562 286.31805801 C622.73938354 286.89281876 623.23551147 287.4675795 623.74667358 288.05975723 C629.99315507 295.3128414 635.97587685 302.72273658 641.7515564 310.35809708 C643.44341769 312.5810533 645.15336321 314.78947766 646.86434937 316.99774551 C689.69560704 372.45423874 725.78487751 434.38729299 752.24325562 499.31805801 C752.52300232 500.00387955 752.80274902 500.68970108 753.0909729 501.39630508 C781.47592729 571.17224897 800.45122799 644.14303456 809.05575562 719.00555801 C809.20494446 720.288573 809.20494446 720.288573 809.35714722 721.59750748 C812.62292759 750.08286697 813.62307725 778.4330309 813.56131363 807.0748024 C813.55566989 809.73344356 813.55285168 812.39207833 813.55023193 815.05072403 C813.51523686 839.47785829 813.3107154 863.79352939 810.49972534 888.08752823 C810.22635733 890.46502323 809.96598644 892.84372713 809.7071228 895.22284317 C800.98489021 974.638106 781.41679508 1052.36741614 730.67538452 1168.4069252 C729.2764031 1171.2506781 727.89030524 1174.1004488 726.50497437 1176.95087051 C719.93517917 1190.37677566 712.76136673 1203.40199885 705.24325562 1216.31805801 C704.40915161 1217.76076065 704.40915161 1217.76076065 703.55819702 1219.2326088 C695.78904045 1232.62409331 687.51904654 1245.62975303 678.93075562 1258.50555801 C678.24361984 1259.53649582 678.24361984 1259.53649582 677.54260254 1260.58826065 C668.84324399 1273.6147461 659.8425033 1286.38769208 650.30575562 1298.81805801 C649.61900757 1299.71532608 648.93225952 1300.61259415 648.22470093 1301.53705215 C646.23439281 1304.1334403 644.23979088 1306.72645658 642.24325562 1309.31805801 C641.71522339 1310.00496719 641.18719116 1310.69187637 640.64315796 1311.39960098 C634.26322175 1319.68213682 627.60472163 1327.67907048 620.75057983 1335.57245255 C619.25890239 1337.29993776 617.78205036 1339.03896017 616.30966187 1340.78290176 C609.46784042 1348.87324741 602.35769209 1356.66546102 595.08163452 1364.36639786 C593.1939862 1366.37036342 591.31699481 1368.38384263 589.44247437 1370.40008926 C570.18150146 1391.09789833 570.18150146 1391.09789833 560.10263062 1399.67743301 C558.06024734 1401.4795359 556.1542385 1403.37744748 554.24325562 1405.31805801 C550.40733706 1409.19832245 546.38283753 1412.7670109 542.24325562 1416.31805801 C541.11502267 1417.29780316 539.98747885 1418.27834217 538.86044312 1419.25946426 C534.99632073 1422.62194283 531.12230432 1425.97281422 527.24325562 1429.31805801 C526.66849487 1429.81418594 526.09373413 1430.31031387 525.5015564 1430.82147598 C518.24847223 1437.06795746 510.83857705 1443.05067925 503.20321655 1448.8263588 C500.98026033 1450.51822009 498.77183596 1452.22816561 496.56356812 1453.93915176 C441.10707489 1496.77040944 379.17402064 1532.85967991 314.24325562 1559.31805801 C313.55743408 1559.59780472 312.87161255 1559.87755142 312.16500854 1560.1657753 C242.38906466 1588.55072969 169.41827907 1607.52603039 94.55575562 1616.13055801 C93.27274063 1616.27974686 93.27274063 1616.27974686 91.96380615 1616.43194962 C63.47844666 1619.69772998 35.12828273 1620.69787965 6.48651123 1620.63611603 C3.82787007 1620.63047228 1.1692353 1620.62765408 -1.4894104 1620.62503433 C-25.91654466 1620.59003925 -50.23221577 1620.3855178 -74.5262146 1617.57452774 C-76.9037096 1617.30115973 -79.28241351 1617.04078883 -81.66152954 1616.7819252 C-161.07679237 1608.05969261 -238.80610251 1588.49159748 -354.84561157 1537.75018692 C-357.68936447 1536.35120549 -360.53913517 1534.96510764 -363.38955688 1533.57977676 C-376.81546203 1527.00998157 -389.84068522 1519.83616913 -402.75674438 1512.31805801 C-404.19944702 1511.48395401 -404.19944702 1511.48395401 -405.67129517 1510.63299942 C-419.06277968 1502.86384285 -432.0684394 1494.59384893 -444.94424438 1486.00555801 C-445.97518219 1485.31842224 -445.97518219 1485.31842224 -447.02694702 1484.61740494 C-460.05343247 1475.91804639 -472.82637845 1466.9173057 -485.25674438 1457.38055801 C-486.15401245 1456.69380997 -487.05128052 1456.00706192 -487.97573853 1455.29950333 C-490.57212667 1453.3091952 -493.16514295 1451.31459328 -495.75674438 1449.31805801 C-496.44365356 1448.79002579 -497.13056274 1448.26199356 -497.83828735 1447.71796036 C-506.12082319 1441.33802414 -514.11775686 1434.67952403 -522.01113892 1427.82538223 C-523.73862413 1426.33370479 -525.47764654 1424.85685276 -527.22158813 1423.38446426 C-535.31193378 1416.54264282 -543.10414739 1409.43249449 -550.80508423 1402.15643692 C-552.80904979 1400.2687886 -554.822529 1398.3917972 -556.83877563 1396.51727676 C-577.5365847 1377.25630385 -577.5365847 1377.25630385 -586.11611938 1367.17743301 C-587.91822228 1365.13504974 -589.81613386 1363.2290409 -591.75674438 1361.31805801 C-595.63700882 1357.48213946 -599.20569728 1353.45763993 -602.75674438 1349.31805801 C-603.73648953 1348.18982507 -604.71702854 1347.06228125 -605.69815063 1345.93524551 C-609.0606292 1342.07112313 -612.41150059 1338.19710672 -615.75674438 1334.31805801 C-616.25287231 1333.74329727 -616.74900024 1333.16853653 -617.26016235 1332.5763588 C-623.50664383 1325.32327463 -629.48936562 1317.91337945 -635.26504517 1310.27801895 C-636.95690646 1308.05506273 -638.66685198 1305.84663836 -640.37783813 1303.63837051 C-683.20909581 1248.18187729 -719.29836628 1186.24882304 -745.75674438 1121.31805801 C-746.17636444 1120.28932571 -746.17636444 1120.28932571 -746.60446167 1119.23981094 C-774.98941606 1049.46386706 -793.96471676 976.49308147 -802.56924438 901.63055801 C-802.66870361 900.77521469 -802.76816284 899.91987137 -802.87063599 899.03860855 C-806.13641636 870.55324905 -807.13656602 842.20308513 -807.0748024 813.56131363 C-807.06915865 810.90267247 -807.06634045 808.2440377 -807.0637207 805.585392 C-807.02872563 781.15825774 -806.82420417 756.84258663 -804.01321411 732.5485878 C-803.7398461 730.1710928 -803.47947521 727.79238889 -803.22061157 725.41327286 C-794.49837898 645.99801003 -774.93028385 568.26869989 -724.18887329 452.22919083 C-722.78989187 449.38543792 -721.40379401 446.53566723 -720.01846313 443.68524551 C-713.44866794 430.25934037 -706.2748555 417.23411718 -698.75674438 404.31805801 C-698.20067505 403.35625626 -697.64460571 402.3944545 -697.07168579 401.40350723 C-689.30252922 388.01202271 -681.0325353 375.006363 -672.44424438 362.13055801 C-671.75710861 361.09962021 -671.75710861 361.09962021 -671.05609131 360.04785538 C-662.35673276 347.02136993 -653.35599207 334.24842395 -643.81924438 321.81805801 C-643.13249634 320.92078995 -642.44574829 320.02352188 -641.7381897 319.09906387 C-639.74788157 316.50267573 -637.75327965 313.90965945 -635.75674438 311.31805801 C-635.22871216 310.63114883 -634.70067993 309.94423965 -634.15664673 309.23651505 C-627.77671052 300.95397921 -621.1182104 292.95704554 -614.2640686 285.06366348 C-612.77239116 283.33617827 -611.29553913 281.59715586 -609.82315063 279.85321426 C-602.98132919 271.76286862 -595.87118086 263.97065501 -588.59512329 256.26971817 C-586.70747497 254.26575261 -584.83048358 252.2522734 -582.95596313 250.23602676 C-563.69499023 229.5382177 -563.69499023 229.5382177 -553.61611938 220.95868301 C-551.57373611 219.15658012 -549.66772727 217.25866854 -547.75674438 215.31805801 C-543.92082583 211.43779358 -539.8963263 207.86910512 -535.75674438 204.31805801 C-534.62851144 203.33831287 -533.50096762 202.35777386 -532.37393188 201.37665176 C-528.5098095 198.0141732 -524.63579309 194.66330181 -520.75674438 191.31805801 C-520.18198364 190.82193008 -519.6072229 190.32580215 -519.01504517 189.81464005 C-511.761961 183.56815856 -504.35206582 177.58543678 -496.71670532 171.80975723 C-494.4937491 170.11789593 -492.28532473 168.40795042 -490.07705688 166.69696426 C-434.62056366 123.86570659 -372.68750941 87.77643612 -307.75674438 61.31805801 C-307.07092285 61.03831131 -306.38510132 60.75856461 -305.67849731 60.47034073 C-235.90255343 32.08538634 -162.93176784 13.11008564 -88.06924438 4.50555801 C-87.21390106 4.40609879 -86.35855774 4.30663956 -85.47729492 4.20416641 C-56.99193543 0.93838604 -28.6417715 -0.06176362 0 0 Z " fill="#262626" transform="translate(806.7567443847656,-0.3180580139160156)"/>
<path d="M0 0 C1.3456602 1.13133126 2.67817994 2.278404 4 3.4375 C4.98613281 4.19804688 5.97226562 4.95859375 6.98828125 5.7421875 C10.18056431 8.40610306 12.1225001 11.37697622 14.1875 15 C14.84105469 16.11503906 15.49460937 17.23007812 16.16796875 18.37890625 C21.51829561 29.30514031 21.42565047 40.67733194 21.36889648 52.53173828 C21.37136902 54.33007028 21.37521201 56.12840083 21.38031006 57.92672729 C21.38860234 61.7767533 21.38787971 65.62663114 21.38012505 69.47665787 C21.36847554 75.57132983 21.38075909 81.66581386 21.39674377 87.76046753 C21.43282045 102.89193616 21.43916788 118.02339945 21.43664551 133.15490723 C21.43493241 144.93086937 21.44209644 156.7066765 21.47662407 168.48259532 C21.49337128 174.5346805 21.49166462 180.58638652 21.47580135 186.63846993 C21.46998778 190.40840947 21.48077361 194.17817069 21.49604797 197.94807816 C21.49976072 199.68867408 21.49670533 201.42930043 21.48617744 203.16986847 C21.41571504 215.65618652 22.55703299 226.26314317 31.3515625 235.921875 C42.59118113 246.66318542 57.48881193 248.85689938 72.32006836 248.87890625 C86.21773577 248.54754713 99.65809396 243.31447731 109.375 233.1875 C117.94978301 223.77348291 117.56970846 212.35369232 117.49829102 200.40258789 C117.50211923 198.58646704 117.50774255 196.77034922 117.51501465 194.95423889 C117.52692294 191.05939606 117.52650866 187.16482303 117.51642036 183.26997566 C117.50079655 177.10374972 117.51458144 170.93779825 117.53245544 164.77159119 C117.56321752 152.79298938 117.564779 140.81447233 117.56280518 128.83583832 C117.56141065 113.59248775 117.57184615 98.3492025 117.6113829 83.10589975 C117.6262679 76.98389198 117.62608276 70.86212945 117.61390507 64.74011815 C117.60917582 60.92318251 117.61674211 57.10633968 117.62744904 53.28941917 C117.62984374 51.52828018 117.62716055 49.7671253 117.61884117 48.00600433 C117.54454869 31.26981148 119.86067357 18.31142293 131.578125 5.828125 C146.33809136 -8.74139018 164.59619452 -13.77865554 184.88989258 -13.74536133 C205.30494165 -13.55278319 224.09668418 -8.11321371 239 6.4375 C248.01425307 16.94295851 251.16289022 27.9771602 251.12698364 41.56681824 C251.12854363 42.47637671 251.13010362 43.38593519 251.13171089 44.32305604 C251.13569387 47.36537098 251.13254172 50.40763587 251.12939453 53.44995117 C251.13074974 55.63313323 251.13253035 57.81631506 251.13470459 59.99949646 C251.13926386 65.92477916 251.13749574 71.85004444 251.1343255 77.77532744 C251.13179511 83.97190762 251.13414125 90.1684863 251.13571167 96.36506653 C251.13764751 107.43443942 251.13453942 118.50380459 251.12945233 129.57317624 C251.1249814 139.61283431 251.12576358 149.65248081 251.13037109 159.69213867 C251.13570125 171.35274134 251.13771626 183.01333678 251.13475883 194.67394048 C251.13319755 200.84603199 251.13299832 207.01811553 251.13629532 213.19020653 C251.13917664 218.98908471 251.1371935 224.78794098 251.13140106 230.58681679 C251.13007506 232.7189747 251.13046489 234.85113444 251.13266373 236.98329163 C251.13538134 239.88526383 251.13198657 242.78716505 251.12698364 245.68913269 C251.12921436 246.54009197 251.13144509 247.39105125 251.13374341 248.26779717 C251.12260608 251.58022014 251.05493783 254.27268652 250 257.4375 C248.02 257.7675 246.04 258.0975 244 258.4375 C241.29469806 255.79469179 240.98795279 254.30971824 240.62641239 250.47495079 C240.61165112 248.82332203 240.61352159 247.17149654 240.62818909 245.51986694 C240.62436452 244.60878917 240.62053996 243.6977114 240.6165995 242.75902522 C240.60729677 239.69905866 240.61931735 236.63954247 240.63110352 233.57958984 C240.62863616 231.38835461 240.62479841 229.19712056 240.61968994 227.00588989 C240.61134233 222.28266858 240.61216787 217.55956778 240.61987495 212.83634567 C240.63144461 205.36452392 240.61930546 197.89285761 240.60325623 190.42105103 C240.58280892 179.94134497 240.56994713 169.46165807 240.56616211 158.98193359 C240.56591724 158.316921 240.56567237 157.6519084 240.56542008 156.9667439 C240.56287637 149.55412288 240.56230619 142.14150318 240.56335449 134.72888184 C240.56368749 132.04435222 240.5639729 129.3598226 240.56420898 126.67529297 C240.56427177 126.01291089 240.56433456 125.3505288 240.56439925 124.66807453 C240.56500504 113.60504045 240.54988508 102.54208707 240.52337593 91.47908556 C240.506592 84.05551489 240.50836896 76.63225312 240.52419865 69.20868373 C240.5300044 64.58217406 240.51923902 59.95581012 240.50395203 55.32932663 C240.50023223 53.18882313 240.50331518 51.04829497 240.51382256 48.90781403 C240.52724611 45.97718785 240.51593845 43.04761945 240.49879456 40.11703491 C240.50860133 39.27731939 240.51840811 38.43760386 240.52851206 37.57244241 C240.41263522 27.94099291 236.53659663 19.45666417 230 12.4375 C217.05966995 0.0888749 198.62509397 -3.92916275 181.29296875 -3.71484375 C165.73659273 -3.30394624 150.23008804 2.1747491 138.59765625 12.6796875 C131.33974023 20.66516968 128.67696501 29.76946457 128.7484436 40.38006592 C128.74547346 41.13797527 128.74250333 41.89588461 128.73944318 42.67676091 C128.73185762 45.19441692 128.73827471 47.71183584 128.74462891 50.22949219 C128.7418764 52.0436926 128.73819493 53.8578918 128.73365784 55.67208862 C128.72556619 59.56907531 128.72337228 63.4660047 128.72560501 67.36299896 C128.7284467 73.53348951 128.71405364 79.70386636 128.69662476 85.87432861 C128.6496812 103.41750382 128.62566445 120.96067099 128.61914062 138.50390625 C128.6153826 148.20055599 128.59729435 157.89707666 128.56404626 167.59367108 C128.54390004 173.71876916 128.54142872 179.84353282 128.55232644 185.96865034 C128.55494564 189.79114307 128.54087077 193.61344371 128.52224541 197.43588638 C128.51695247 199.19820834 128.51837016 200.96056631 128.52728081 202.72287369 C128.6009644 218.58453213 125.86611622 231.14575005 114.75 243.125 C100.15638067 256.86203732 80.77368902 259.01741061 61.63671875 258.78125 C46.2993558 258.26053036 33.17401499 251.96169644 21.97265625 241.5703125 C13.87391862 232.8140536 10.83459496 220.56756213 10.87542725 208.93162537 C10.8740171 208.1844464 10.87260695 207.43726743 10.87115407 206.66744667 C10.86750937 204.16817131 10.87083408 201.66895299 10.87402344 199.16967773 C10.87262818 197.37562516 10.87072854 195.58157292 10.86836243 193.78752136 C10.86386849 189.92487257 10.86200941 186.06223439 10.86190033 182.19958305 C10.86075845 176.0839609 10.84790791 169.96839891 10.83233643 163.85279846 C10.82976357 162.81975427 10.82719072 161.78671007 10.8245399 160.72236151 C10.81927331 158.60989312 10.81398783 156.49742477 10.80868387 154.38495648 C10.77360987 140.15042719 10.74701903 125.9159726 10.74951172 111.68139648 C10.75110334 102.07593196 10.73499306 92.47067277 10.69880509 82.86527401 C10.68039231 77.78657187 10.67096122 72.70821236 10.68328094 67.62948418 C10.69477068 62.84648876 10.68289048 58.06410525 10.65364647 53.28119087 C10.64704058 51.53338855 10.64881273 49.7855296 10.65994453 48.03775024 C10.73817222 34.63495291 8.86659237 22.4558861 -1 12.4375 C-7.57533616 6.81494064 -14.8616112 3.24632445 -23 0.4375 C-23.92683594 0.11652344 -24.85367188 -0.20445312 -25.80859375 -0.53515625 C-40.96353513 -4.86226435 -59.40551838 -4.56157937 -74 1.4375 C-74.89460938 1.79972656 -75.78921875 2.16195312 -76.7109375 2.53515625 C-88.19524576 7.74726538 -96.26659136 15.31414393 -101.05612278 27.01835442 C-102.24160165 31.31268928 -102.27901121 35.20377665 -102.25828552 39.63601685 C-102.26379908 41.01154687 -102.26379908 41.01154687 -102.26942402 42.41486537 C-102.27939104 45.4825257 -102.27525582 48.55000431 -102.27124023 51.61767578 C-102.2756279 53.81894117 -102.2809302 56.02020489 -102.28707886 58.22146606 C-102.29857468 62.95882304 -102.30403796 67.69613531 -102.30496025 72.43350601 C-102.30690026 79.92062708 -102.32494841 87.40765552 -102.34571838 94.89474487 C-102.3734798 105.38766788 -102.39646892 115.88058928 -102.41333008 126.37353516 C-102.4149391 127.37171834 -102.4149391 127.37171834 -102.41658062 128.39006685 C-102.42840667 135.81827028 -102.43861233 143.24647454 -102.44702148 150.67468262 C-102.45009562 153.37052411 -102.45318437 156.06636558 -102.45629883 158.76220703 C-102.45706417 159.42745609 -102.45782951 160.09270514 -102.45861804 160.77811326 C-102.4716942 171.86603675 -102.4964803 182.95390534 -102.53004223 194.04178607 C-102.55186399 201.48870686 -102.55987228 208.93547688 -102.55764949 216.38242745 C-102.55931232 221.00863189 -102.57333624 225.63473725 -102.59086227 230.26090622 C-102.59647692 232.41037528 -102.59693318 234.55986476 -102.59192467 236.70933533 C-102.58581567 239.63743533 -102.59795619 242.56490541 -102.61473083 245.49295044 C-102.60851902 246.34877877 -102.6023072 247.20460711 -102.59590715 248.08636963 C-102.63235061 251.56332713 -102.72202626 253.97076291 -104.52407932 256.99653435 C-105.01113315 257.47205301 -105.49818697 257.94757168 -106 258.4375 C-110.75 257.5625 -110.75 257.5625 -113 256.4375 C-113.07013661 227.43879373 -113.12301102 198.4401002 -113.15543652 169.44132614 C-113.15849596 166.75873558 -113.16161993 164.07614511 -113.16479492 161.39355469 C-113.16558185 160.7268047 -113.16636878 160.06005472 -113.16717956 159.37310019 C-113.18021269 148.59501522 -113.20385491 137.81697854 -113.23145839 127.03892216 C-113.259571 115.96926517 -113.27596424 104.89963474 -113.28226548 93.8299439 C-113.2861703 87.61663026 -113.29532322 81.40342594 -113.31719017 75.1901474 C-113.33762431 69.33629624 -113.34381977 63.48259895 -113.33932304 57.62871552 C-113.34014515 55.48582115 -113.34606928 53.34292139 -113.35761642 51.20005798 C-113.45246505 32.68281281 -111.94898276 18.66104724 -98.6875 4.625 C-73.85781277 -18.90448402 -27.25399109 -20.8947265 0 0 Z " fill="#F4F4F4" transform="translate(549,669.5625)"/>
<path d="M0 0 C1.60140845 -0.00407439 3.20281408 -0.00942111 4.80421448 -0.01593018 C9.12062744 -0.02951094 13.43682328 -0.02434248 17.75323963 -0.01479292 C22.29543918 -0.0071428 26.83762141 -0.01425717 31.37982178 -0.01895142 C39.00894469 -0.02439571 46.63798023 -0.01725461 54.26708984 -0.00292969 C63.04894895 0.0133708 71.83059877 0.00812188 80.61245275 -0.0084089 C88.18742242 -0.0220898 95.76232963 -0.02391067 103.33730769 -0.0160929 C107.84587063 -0.01144944 112.35433575 -0.01069821 116.86289215 -0.02070236 C121.10825156 -0.02946568 125.3533455 -0.0231822 129.59867668 -0.00601959 C131.14324188 -0.00210311 132.68783002 -0.00310397 134.23238564 -0.00980759 C154.55647175 -0.08978014 172.53907939 3.49893051 187.60058594 18.11083984 C198.31310371 29.48679224 204.08336468 41.98410812 203.99908447 57.68881226 C204.00220445 58.59261804 204.00532444 59.49642383 204.00853896 60.42761767 C204.01647932 63.43846625 204.01021093 66.44911107 204.00390625 69.45996094 C204.00661775 71.62535723 204.01017958 73.79075261 204.01452637 75.95614624 C204.02363036 81.82341135 204.02011516 87.69060598 204.0137682 93.5578723 C204.00870182 99.6961864 204.01340107 105.8344945 204.01654053 111.97280884 C204.02017665 122.27387577 204.0153886 132.57491399 204.00585938 142.87597656 C203.99495819 154.79809244 203.9985139 166.72013999 204.00951219 178.64225423 C204.01857446 188.87421517 204.01987606 199.1061555 204.01463485 209.33811915 C204.01151153 215.45147169 204.01111605 221.56479205 204.01770782 227.67814255 C204.02346586 233.41879368 204.01951282 239.1593562 204.00791931 244.89999771 C204.00526518 247.01161298 204.00605055 249.12323566 204.01044464 251.23484802 C204.0158715 254.10648646 204.00910118 256.97783694 203.99908447 259.84945679 C204.00354592 260.69418277 204.00800736 261.53890876 204.012604 262.4092325 C203.9734184 268.15988238 203.9734184 268.15988238 201.74511719 270.38818359 C198.74511719 270.63818359 198.74511719 270.63818359 195.74511719 270.38818359 C195.08511719 269.72818359 194.42511719 269.06818359 193.74511719 268.38818359 C193.74511719 228.78818359 193.74511719 189.18818359 193.74511719 148.38818359 C110.91511719 148.38818359 28.08511719 148.38818359 -57.25488281 148.38818359 C-57.25488281 187.98818359 -57.25488281 227.58818359 -57.25488281 268.38818359 C-59.25488281 270.38818359 -59.25488281 270.38818359 -62.25488281 270.63818359 C-65.25488281 270.38818359 -65.25488281 270.38818359 -67.25488281 268.38818359 C-67.45715207 265.53861756 -67.53287047 262.78566758 -67.52230835 259.93452454 C-67.52683946 259.04910121 -67.53137058 258.16367788 -67.53603899 257.25142354 C-67.54876115 254.26611499 -67.54705755 251.28098706 -67.54541016 248.2956543 C-67.55139101 246.16208662 -67.55819553 244.02852112 -67.56576538 241.8949585 C-67.58348951 236.08226018 -67.58812379 230.2696207 -67.58939695 224.45689797 C-67.5912939 219.60187379 -67.59865008 214.74686336 -67.60574114 209.89184445 C-67.62205123 198.4260175 -67.62690816 186.96022198 -67.62548828 175.49438477 C-67.62428991 163.68620682 -67.64532475 151.87821257 -67.67697561 140.07008106 C-67.70319373 129.92550784 -67.71385308 119.78099434 -67.71257746 109.63638753 C-67.71206894 103.58116317 -67.71768969 97.52610153 -67.73893356 91.47091103 C-67.75840604 85.76388189 -67.75837895 80.05716896 -67.7439003 74.35012817 C-67.74182142 72.26493552 -67.74645761 70.17972265 -67.75862122 68.09456444 C-67.84544552 52.16723358 -66.96512628 37.74282575 -57.25488281 24.38818359 C-56.8153125 23.76685547 -56.37574219 23.14552734 -55.92285156 22.50537109 C-42.31891132 5.02019142 -20.93539977 -0.09034019 0 0 Z M-46.25488281 26.38818359 C-46.25488281 27.04818359 -46.25488281 27.70818359 -46.25488281 28.38818359 C-46.91488281 28.38818359 -47.57488281 28.38818359 -48.25488281 28.38818359 C-49.7581821 30.28761019 -49.7581821 30.28761019 -51.19238281 32.76318359 C-51.69640625 33.57529297 -52.20042969 34.38740234 -52.71972656 35.22412109 C-68.0359775 66.79196654 -57.25488281 105.30091511 -57.25488281 140.38818359 C25.57511719 140.38818359 108.40511719 140.38818359 193.74511719 140.38818359 C201.03646072 86.12361306 201.03646072 86.12361306 181.86230469 25.45849609 C170.98429361 15.51898009 158.57630646 10.29334055 143.77110291 10.24101257 C143.09319547 10.23733589 142.41528803 10.2336592 141.71683794 10.22987109 C139.45794595 10.21890747 137.19910007 10.21500293 134.94018555 10.21118164 C133.31509254 10.20491137 131.69000094 10.19826407 130.06491089 10.19126892 C124.73827094 10.17029006 119.41163091 10.15987107 114.08496094 10.14990234 C112.24586027 10.14585223 110.40675975 10.14173523 108.56765938 10.13755226 C99.92376639 10.11851272 91.27988187 10.10428012 82.63597196 10.09594029 C72.68376244 10.08617769 62.73177591 10.05987849 52.77964491 10.0194394 C45.07067781 9.9891985 37.36177434 9.97446381 29.65274912 9.97115928 C25.05637704 9.96881758 20.46024351 9.95997253 15.86393547 9.9346981 C11.53410758 9.9112728 7.20467287 9.90724166 2.87479782 9.91745949 C1.29509606 9.91795149 -0.28462603 9.91173127 -1.86426735 9.89790344 C-18.62865219 9.75949002 -34.4825779 13.65356493 -46.25488281 26.38818359 Z " fill="#F5F5F5" transform="translate(910.2548828125,657.61181640625)"/>
<path d="M0 0 C1.59863596 -0.00215307 3.19727036 -0.00604138 4.79589844 -0.01150513 C9.08503485 -0.02108694 13.37374625 -0.00603889 17.66283131 0.01440096 C22.17884033 0.03214873 26.69483967 0.02844353 31.21087646 0.02767944 C38.78583769 0.02954407 46.36063727 0.0467973 53.93554688 0.07421875 C62.66527936 0.10570598 71.3948355 0.11621283 80.12462068 0.11474764 C89.46624089 0.1133921 98.80779415 0.12729371 108.14939404 0.14564085 C110.82209469 0.14988193 113.49478439 0.15132022 116.1674881 0.15211868 C120.38002358 0.15414238 124.59241377 0.16647126 128.80490112 0.18645096 C130.34146992 0.19224183 131.87805544 0.19476385 133.4146347 0.19359589 C153.79496285 0.18397462 170.81582683 3.73311535 186.03027344 18.12646484 C196.16065122 28.56801464 201.64998684 39.21132987 201.57330322 53.81806946 C201.5764232 54.73735503 201.57954319 55.6566406 201.58275771 56.60378331 C201.59071215 59.67301456 201.5844241 62.7420467 201.578125 65.8112793 C201.5808359 68.01593644 201.58439739 70.22059267 201.58874512 72.42524719 C201.59785691 78.40413775 201.59433052 84.38295923 201.58798695 90.36185098 C201.58292391 96.61494906 201.58761895 102.86804122 201.59075928 109.12113953 C201.59462962 120.28863202 201.58841736 131.45609913 201.5782406 142.62358554 C201.56929457 152.75452504 201.57086694 162.88541874 201.58007812 173.01635742 C201.59077233 184.7839018 201.59477073 196.55142387 201.5888536 208.31897324 C201.58572995 214.54747664 201.58533565 220.77594846 201.59192657 227.00444984 C201.59768469 232.8542503 201.59373141 238.70396379 201.58213806 244.55375481 C201.57948384 246.70568319 201.58026946 248.85761884 201.58466339 251.00954437 C201.59008997 253.93597268 201.58332022 256.86211838 201.57330322 259.78852844 C201.57776467 260.64950034 201.58222611 261.51047224 201.58682275 262.39753419 C201.54763692 268.25753886 201.54763692 268.25753886 199.31933594 270.48583984 C196.81933594 270.73583984 196.81933594 270.73583984 194.31933594 270.48583984 C193.65933594 269.82583984 192.99933594 269.16583984 192.31933594 268.48583984 C192.31933594 228.88583984 192.31933594 189.28583984 192.31933594 148.48583984 C109.48933594 148.48583984 26.65933594 148.48583984 -58.68066406 148.48583984 C-58.68066406 188.08583984 -58.68066406 227.68583984 -58.68066406 268.48583984 C-60.68066406 270.48583984 -60.68066406 270.48583984 -63.68066406 270.73583984 C-66.68066406 270.48583984 -66.68066406 270.48583984 -68.68066406 268.48583984 C-68.88293332 265.63627381 -68.95865172 262.88332383 -68.9480896 260.03218079 C-68.95262071 259.14675746 -68.95715183 258.26133413 -68.96182024 257.34907979 C-68.9745424 254.36377124 -68.9728388 251.37864331 -68.97119141 248.39331055 C-68.97717226 246.25974287 -68.98397678 244.12617737 -68.99154663 241.99261475 C-69.00927076 236.17991643 -69.01390504 230.36727695 -69.0151782 224.55455422 C-69.01707515 219.69953004 -69.02443133 214.84451961 -69.03152239 209.9895007 C-69.04783248 198.52367375 -69.05268941 187.05787823 -69.05126953 175.59204102 C-69.05007116 163.78386307 -69.071106 151.97586882 -69.10275686 140.16773731 C-69.12897498 130.02316409 -69.13963433 119.87865059 -69.13835871 109.73404378 C-69.13785019 103.67881942 -69.14347094 97.62375778 -69.16471481 91.56856728 C-69.18418729 85.86153814 -69.1841602 80.15482521 -69.16968155 74.44778442 C-69.16760267 72.36259177 -69.17223886 70.2773789 -69.18440247 68.19222069 C-69.29212668 48.43094263 -66.6322669 33.19645029 -53.19628906 17.88427734 C-51.68066406 16.48583984 -51.68066406 16.48583984 -49.68066406 16.48583984 C-49.35066406 15.49583984 -49.02066406 14.50583984 -48.68066406 13.48583984 C-46.35082388 11.85765037 -44.08268051 10.44233923 -41.61816406 9.04833984 C-40.99361328 8.66613281 -40.3690625 8.28392578 -39.72558594 7.89013672 C-27.48334695 0.90980878 -13.75590043 -0.1096557 0 0 Z M-50.68066406 29.48583984 C-71.6315654 59.61323597 -58.68066406 116.18193122 -58.68066406 140.48583984 C24.14933594 140.48583984 106.97933594 140.48583984 192.31933594 140.48583984 C199.58269444 84.06937863 199.58269444 84.06937863 180.31933594 25.48583984 C166.41206232 13.32477098 153.14855876 10.17960036 135.1796875 10.21118164 C133.54282398 10.20682956 131.90596249 10.20164476 130.269104 10.19569397 C125.83913812 10.18234376 121.40925777 10.18172103 116.9792757 10.18425727 C113.27188873 10.18533003 109.56451884 10.18043563 105.85713553 10.17565185 C97.10396267 10.16456966 88.35083273 10.16411151 79.59765625 10.17016602 C70.59086871 10.17620057 61.5842376 10.16390501 52.57747674 10.14259595 C44.82516497 10.12493437 37.07290279 10.11898589 29.32057166 10.12223369 C24.69916767 10.12403999 20.07787519 10.12147627 15.45648956 10.10751915 C11.10615237 10.09487165 6.75605738 10.09694982 2.40572357 10.10993004 C0.8175498 10.11228066 -0.77064139 10.10961606 -2.35879517 10.10130692 C-21.81900738 10.00690918 -37.24990403 14.62218025 -50.68066406 29.48583984 Z " fill="#F8F8F8" transform="translate(1225.6806640625,657.51416015625)"/>
<path d="M0 0 C33.32618074 -0.04574693 66.65235368 -0.08100368 99.97855883 -0.10213066 C103.91026648 -0.10463216 107.84197408 -0.1072208 111.77368164 -0.10986328 C112.94781285 -0.11065021 112.94781285 -0.11065021 114.14566388 -0.11145304 C126.83097169 -0.12016298 139.51626143 -0.13593618 152.20155851 -0.15430559 C165.21140463 -0.17298829 178.22124127 -0.18411327 191.23110026 -0.18817699 C199.26317447 -0.19092544 207.29519761 -0.19961578 215.32725611 -0.21583293 C221.4793468 -0.22762391 227.63139831 -0.22891548 233.78349876 -0.22621536 C236.31234426 -0.22676767 238.84119161 -0.23077334 241.37002563 -0.23841095 C244.81099066 -0.24829762 248.25173355 -0.24599188 251.69270325 -0.24050903 C252.70339318 -0.24633472 253.71408311 -0.2521604 254.7554 -0.25816262 C255.67402279 -0.25418052 256.59264557 -0.25019842 257.53910542 -0.24609566 C258.73123739 -0.24723482 258.73123739 -0.24723482 259.94745284 -0.24839699 C262 0 262 0 265 2 C265.375 5 265.375 5 265 8 C261.69692536 10.20204976 260.72909545 10.2482028 256.89375305 10.24050903 C255.30991318 10.24463303 255.30991318 10.24463303 253.69407654 10.24884033 C252.53602005 10.24164978 251.37796356 10.23445923 250.18481445 10.22705078 C248.96518005 10.22734283 247.74554565 10.22763489 246.48895264 10.22793579 C243.14409904 10.22678032 239.79949164 10.21674268 236.45468163 10.20278788 C232.95931233 10.19029424 229.46393982 10.1891111 225.96855164 10.18673706 C219.34937557 10.18051826 212.73026549 10.16410206 206.1111185 10.14403808 C198.57553049 10.12169149 191.03993935 10.11068878 183.50432646 10.10064721 C168.00284608 10.07973617 152.50143155 10.04455245 137 10 C137.00075944 10.54516073 137.00151888 11.09032146 137.00230134 11.65200222 C137.04701996 43.93496129 137.08135411 76.21791219 137.10213066 108.50089508 C137.10463219 112.3738064 137.10722082 116.24671767 137.10986328 120.11962891 C137.1103879 120.8906829 137.11091252 121.66173689 137.11145304 122.45615615 C137.12016483 134.95461039 137.13593904 147.45304631 137.15430559 159.95148967 C137.17298315 172.76809883 137.18411217 185.58469837 137.18817699 198.40132058 C137.19092651 206.31516656 137.19962262 214.22896076 137.21583293 222.14279081 C137.22761619 228.20260865 137.22891679 234.26238158 137.22621536 240.32221222 C137.22676804 242.81438899 137.23077856 245.30656762 137.23841095 247.79873276 C137.24828485 251.18750003 137.24599666 254.5760413 137.24050903 257.96481323 C137.24633472 258.96285221 137.2521604 259.96089119 137.25816262 260.98917377 C137.25418052 261.89187193 137.25019842 262.79457008 137.24609566 263.72462273 C137.2468551 264.50760605 137.24761454 265.29058937 137.24839699 266.09729946 C137 268 137 268 135 270 C132 270.25 132 270.25 129 270 C127 268 127 268 126.75160301 266.09729946 C126.75236245 265.31431614 126.75312189 264.53133281 126.75390434 263.72462273 C126.74992225 262.82192457 126.74594015 261.91922642 126.74183738 260.98917377 C126.75057591 259.4921153 126.75057591 259.4921153 126.75949097 257.96481323 C126.75778212 256.90954787 126.75607327 255.85428252 126.75431263 254.76703942 C126.75100113 251.20774378 126.76204874 247.64863393 126.77294922 244.08935547 C126.77351297 241.54722091 126.77319747 239.00508603 126.77206421 236.46295166 C126.7716078 230.97794071 126.77730468 225.4929903 126.78853989 220.00799179 C126.80477366 212.07755587 126.81000071 204.14714296 126.81251587 196.21669222 C126.81689631 183.35099143 126.83021488 170.48531595 126.84912109 157.61962891 C126.86747086 145.1196302 126.88163178 132.61963836 126.89013672 120.11962891 C126.89066217 119.34950949 126.89118761 118.57939008 126.89172898 117.78593372 C126.894339 113.92258465 126.89686643 110.05923553 126.89935279 106.19588637 C126.92009617 74.13057251 126.95533118 42.06528977 127 10 C126.35247332 10.00184359 125.70494663 10.00368717 125.03779793 10.00558662 C109.29805509 10.04971298 93.5583337 10.08283085 77.81854439 10.10362434 C70.20696927 10.11394662 62.59543538 10.12802505 54.98388672 10.15087891 C48.35136732 10.17078375 41.71887778 10.18370951 35.08632934 10.18817699 C31.57289744 10.19078932 28.05955097 10.196949 24.54614639 10.21146011 C20.62856671 10.22751002 16.71107139 10.22798156 12.79345703 10.22705078 C11.62245453 10.23424133 10.45145203 10.24143188 9.2449646 10.24884033 C7.65056549 10.24471634 7.65056549 10.24471634 6.0239563 10.24050903 C4.63297069 10.24327441 4.63297069 10.24327441 3.21388435 10.24609566 C1 10 1 10 -1 8 C-1.33333333 2.66666667 -1.33333333 2.66666667 0 0 Z " fill="#F6F6F6" transform="translate(133,658)"/>
<path d="M0 0 C2.908125 -0.020625 5.81625 -0.04125 8.8125 -0.0625 C9.72491455 -0.071604 10.6373291 -0.08070801 11.57739258 -0.09008789 C12.66250122 -0.09383423 12.66250122 -0.09383423 13.76953125 -0.09765625 C14.87711792 -0.10551147 14.87711792 -0.10551147 16.00708008 -0.11352539 C18 0 18 0 21 1 C21 1.66 21 2.32 21 3 C21.99 3.33 22.98 3.66 24 4 C24.48695652 11.30434783 24.48695652 11.30434783 22.25 14.5 C20 16 20 16 16 16 C16.5775 16.68707031 17.155 17.37414062 17.75 18.08203125 C18.86375 19.43361328 18.86375 19.43361328 20 20.8125 C20.7425 21.70582031 21.485 22.59914063 22.25 23.51953125 C24 26 24 26 24 29 C20.13973502 27.47849916 18.31035867 25.13794834 15.75 21.9375 C11.90042721 17.4691112 11.90042721 17.4691112 6.4375 15.875 C5.303125 15.91625 4.16875 15.9575 3 16 C3 20.29 3 24.58 3 29 C2.01 29 1.02 29 0 29 C0 19.43 0 9.86 0 0 Z " fill="#969696" transform="translate(898,954)"/>
<path d="M0 0 C2.38476562 0.29711914 2.38476562 0.29711914 5 1 C6.43216101 3.52145296 7.47949674 5.75584589 8.5 8.4375 C9.09284326 9.89803394 9.68789845 11.35767199 10.28515625 12.81640625 C10.57277832 13.53070801 10.86040039 14.24500977 11.15673828 14.98095703 C12.61978369 18.48396385 14.38355041 21.82409885 16.15234375 25.1796875 C17 27 17 27 17 29 C15.68 28.67 14.36 28.34 13 28 C12.67 26.68 12.34 25.36 12 24 C2.595 24.495 2.595 24.495 -7 25 C-7.66 26.32 -8.32 27.64 -9 29 C-9.99 29 -10.98 29 -12 29 C-11.37143878 25.08165565 -10.16760882 21.85451551 -8.49609375 18.26171875 C-8.00302734 17.19501953 -7.50996094 16.12832031 -7.00195312 15.02929688 C-6.48568359 13.92650391 -5.96941406 12.82371094 -5.4375 11.6875 C-4.65729492 10.00430664 -4.65729492 10.00430664 -3.86132812 8.28710938 C-2.57900626 5.52247049 -1.29175153 2.76024234 0 0 Z " fill="#999999" transform="translate(842,954)"/>
<path d="M0 0 C7.59 0 15.18 0 23 0 C23 0.99 23 1.98 23 3 C16.4 3 9.8 3 3 3 C3 5.97 3 8.94 3 12 C9.27 12 15.54 12 22 12 C22 12.66 22 13.32 22 14 C15.73 14 9.46 14 3 14 C3 17.96 3 21.92 3 26 C9.6 26 16.2 26 23 26 C23 26.99 23 27.98 23 29 C15.41 29 7.82 29 0 29 C0 19.43 0 9.86 0 0 Z " fill="#A3A3A3" transform="translate(1210,954)"/>
<path d="M0 0 C1.41732422 -0.02126953 1.41732422 -0.02126953 2.86328125 -0.04296875 C5.88004035 0.20321214 8.01051611 0.78232163 10.6875 2.1875 C11.5 4.8125 11.5 4.8125 11.6875 7.1875 C10.6975 7.1875 9.7075 7.1875 8.6875 7.1875 C8.3575 6.5275 8.0275 5.8675 7.6875 5.1875 C4.86033905 4.24511302 3.05573877 4.05284353 0.125 4.0625 C-1.05255859 4.05863281 -1.05255859 4.05863281 -2.25390625 4.0546875 C-4.37688977 4.05773634 -4.37688977 4.05773634 -6.3125 5.1875 C-6.3125 6.5075 -6.3125 7.8275 -6.3125 9.1875 C-5.19230469 9.58582031 -4.07210938 9.98414063 -2.91796875 10.39453125 C-1.44515281 10.92924786 0.02749474 11.46442844 1.5 12 C2.23798828 12.26103516 2.97597656 12.52207031 3.73632812 12.79101562 C4.44853516 13.05205078 5.16074219 13.31308594 5.89453125 13.58203125 C6.5491333 13.81768799 7.20373535 14.05334473 7.87817383 14.29614258 C9.98327542 15.3332126 11.22710857 16.35016183 12.6875 18.1875 C13.33365385 24.21826923 13.33365385 24.21826923 11.4375 27.0625 C7.1285306 29.83255176 1.63451927 29.81229655 -3.3125 29.1875 C-8.82974138 26.42887931 -8.82974138 26.42887931 -10.1875 22.9375 C-10.22875 22.36 -10.27 21.7825 -10.3125 21.1875 C-7.81888429 22.39131448 -5.63106917 23.64178722 -3.3125 25.1875 C-0.33800392 25.42969315 -0.33800392 25.42969315 2.875 25.3125 C4.50501953 25.28542969 4.50501953 25.28542969 6.16796875 25.2578125 C6.99941406 25.23460937 7.83085938 25.21140625 8.6875 25.1875 C8.6875 23.2075 8.6875 21.2275 8.6875 19.1875 C7.60082031 18.80658203 7.60082031 18.80658203 6.4921875 18.41796875 C-6.82181677 13.67818323 -6.82181677 13.67818323 -10.3125 10.1875 C-10.87229644 4.92541349 -10.87229644 4.92541349 -8.9375 2.375 C-5.86522983 0.12987949 -3.76633685 0.02548266 0 0 Z " fill="#959595" transform="translate(1416.3125,953.8125)"/>
<path d="M0 0 C0.99 0 1.98 0 3 0 C3 4.29 3 8.58 3 13 C8.94 13 14.88 13 21 13 C21 8.71 21 4.42 21 0 C21.99 0 22.98 0 24 0 C24 9.57 24 19.14 24 29 C23.01 29 22.02 29 21 29 C21 24.38 21 19.76 21 15 C15.06 15 9.12 15 3 15 C3 19.62 3 24.24 3 29 C2.01 29 1.02 29 0 29 C0 19.43 0 9.86 0 0 Z " fill="#A2A2A2" transform="translate(1028,954)"/>
<path d="M0 0 C3.125 1.875 3.125 1.875 5 4 C5 4.66 5 5.32 5 6 C2.83125748 5.49396008 1.00032373 5.00016187 -1 4 C-2.87379605 3.92966231 -4.75001102 3.9156978 -6.625 3.9375 C-8.12933594 3.95103516 -8.12933594 3.95103516 -9.6640625 3.96484375 C-10.82035156 3.98224609 -10.82035156 3.98224609 -12 4 C-14.1317198 8.83246441 -14.61548974 12.77293045 -14 18 C-12.44927204 22.33696609 -12.44927204 22.33696609 -9 25 C-6.89044938 25.19738723 -6.89044938 25.19738723 -4.5625 25.1875 C-3.38880859 25.20876953 -3.38880859 25.20876953 -2.19140625 25.23046875 C0.29205987 25.14086064 0.29205987 25.14086064 3 23 C3.99 23 4.98 23 6 23 C5.04254012 25.61125422 4.34378312 26.79164659 1.9375 28.25 C-2.65066535 29.42144647 -7.49428166 30.33249005 -11.84375 28.01953125 C-14.7368239 25.71499934 -16.6653565 23.41547406 -18 20 C-18.30078125 17.16015625 -18.30078125 17.16015625 -18.3125 14.0625 C-18.32925781 13.04285156 -18.34601563 12.02320313 -18.36328125 10.97265625 C-17.8366436 6.66328796 -16.17039587 4.0285297 -12.9375 1.1875 C-8.6144409 -0.56011964 -4.59778793 -0.70097423 0 0 Z " fill="#999999" transform="translate(1293,954)"/>
<path d="M0 0 C2.30859375 1.3359375 2.30859375 1.3359375 4 3 C4 3.99 4 4.98 4 6 C3.360625 5.67 2.72125 5.34 2.0625 5 C-1.91813183 3.70020185 -5.84958635 3.27717515 -10 4 C-11.92303231 5.56740305 -12.89008969 6.78017938 -14 9 C-14.78422596 16.21202264 -14.78422596 16.21202264 -12.125 22.625 C-8.17318904 25.18205415 -4.65522637 25.54387793 0 25 C0.99 24.34 1.98 23.68 3 23 C3.99 23 4.98 23 6 23 C5.04254012 25.61125422 4.34378312 26.79164659 1.9375 28.25 C-2.65066535 29.42144647 -7.49428166 30.33249005 -11.84375 28.01953125 C-14.7368239 25.71499934 -16.6653565 23.41547406 -18 20 C-18.30078125 17.16015625 -18.30078125 17.16015625 -18.3125 14.0625 C-18.32925781 13.04285156 -18.34601562 12.02320313 -18.36328125 10.97265625 C-17.8366436 6.66328796 -16.17039587 4.0285297 -12.9375 1.1875 C-8.70555085 -0.52328795 -4.5040051 -0.74700572 0 0 Z " fill="#9B9B9B" transform="translate(981,954)"/>
<path d="M0 0 C2.24973447 -0.054138 4.49984383 -0.09285491 6.75 -0.125 C8.00296875 -0.14820313 9.2559375 -0.17140625 10.546875 -0.1953125 C13.72820492 -0.01537302 15.36521896 0.31001418 18 2 C18.125 4.875 18.125 4.875 18 8 C16 10 16 10 12.3046875 10.1953125 C10.82799892 10.182009 9.35137642 10.15814835 7.875 10.125 C7.12089844 10.11597656 6.36679687 10.10695313 5.58984375 10.09765625 C3.72642746 10.0740687 1.86317407 10.03819719 0 10 C0 6.7 0 3.4 0 0 Z " fill="#272727" transform="translate(901,957)"/>
<path d="M0 0 C8.25 0 16.5 0 25 0 C25 0.99 25 1.98 25 3 C21.37 3 17.74 3 14 3 C14 11.58 14 20.16 14 29 C13.01 29 12.02 29 11 29 C11 20.42 11 11.84 11 3 C7.37 3 3.74 3 0 3 C0 2.01 0 1.02 0 0 Z " fill="#999999" transform="translate(1144,954)"/>
<path d="M0 0 C2.55192629 1.27596315 2.99500868 2.37156116 4 5 C3.67 5.99 3.34 6.98 3 8 C3.33 8.66 3.66 9.32 4 10 C2.76265016 11.03613033 1.50955363 12.05347802 0.25 13.0625 C-0.44609375 13.63097656 -1.1421875 14.19945312 -1.859375 14.78515625 C-4 16 -4 16 -6.203125 15.87109375 C-7.09257813 15.43990234 -7.09257813 15.43990234 -8 15 C-8.33 14.01 -8.66 13.02 -9 12 C-10.65 12.33 -12.3 12.66 -14 13 C-14 12.01 -14 11.02 -14 10 C-13.01 9.67 -12.02 9.34 -11 9 C-10.67 8.01 -10.34 7.02 -10 6 C-7.78515625 4.359375 -7.78515625 4.359375 -5.0625 2.75 C-4.16660156 2.20859375 -3.27070312 1.6671875 -2.34765625 1.109375 C-1.57292969 0.74328125 -0.79820313 0.3771875 0 0 Z " fill="#EFEFEF" transform="translate(1187,665)"/>
<path d="M0 0 C8.25 0 16.5 0 25 0 C25 0.99 25 1.98 25 3 C21.37 3 17.74 3 14 3 C14 11.25 14 19.5 14 28 C13.01 28.33 12.02 28.66 11 29 C11 20.42 11 11.84 11 3 C7.37 3 3.74 3 0 3 C0 2.01 0 1.02 0 0 Z " fill="#9A9A9A" transform="translate(1340,954)"/>
<path d="M0 0 C0.99 0.495 0.99 0.495 2 1 C2.1875 3.875 2.1875 3.875 2 7 C-1.30307464 9.20204976 -2.27090455 9.2482028 -6.10624695 9.24050903 C-7.69008682 9.24463303 -7.69008682 9.24463303 -9.30592346 9.24884033 C-10.46397995 9.24164978 -11.62203644 9.23445923 -12.81518555 9.22705078 C-14.03481995 9.22734283 -15.25445435 9.22763489 -16.51104736 9.22793579 C-19.85590096 9.22678032 -23.20050836 9.21674268 -26.54531837 9.20278788 C-30.04068767 9.19029424 -33.53606018 9.1891111 -37.03144836 9.18673706 C-43.65062443 9.18051826 -50.26973451 9.16410206 -56.8888815 9.14403808 C-64.42446951 9.12169149 -71.96006065 9.11068878 -79.49567354 9.10064721 C-94.99715392 9.07973617 -110.49856845 9.04455245 -126 9 C-126 8.67 -126 8.34 -126 8 C-64.62 7.505 -64.62 7.505 -2 7 C-1.67 5.35 -1.34 3.7 -1 2 C-0.67 1.34 -0.34 0.68 0 0 Z " fill="#EDEDED" transform="translate(396,659)"/>
<path d="M0 0 C0.66 0 1.32 0 2 0 C3.17154293 2.28929053 4.33738074 4.58118362 5.5 6.875 C5.83386719 7.52597656 6.16773438 8.17695312 6.51171875 8.84765625 C9 13.7734375 9 13.7734375 9 16 C4.05 16 -0.9 16 -6 16 C-4.23196827 10.52752083 -2.34565002 5.24978815 0 0 Z " fill="#2A2A2A" transform="translate(843,959)"/>
<path d="M0 0 C7.59 0 15.18 0 23 0 C23 0.33 23 0.66 23 1 C15.74 1 8.48 1 1 1 C1.165 2.7325 1.33 4.465 1.5 6.25 C2.03016549 12.5223804 2.0749114 18.70744243 2 25 C8.93 25.33 15.86 25.66 23 26 C23 26.99 23 27.98 23 29 C15.41 29 7.82 29 0 29 C0 19.43 0 9.86 0 0 Z " fill="#919191" transform="translate(1210,954)"/>
<path d="M0 0 C2.93756119 -0.0269501 5.87487555 -0.04681474 8.8125 -0.0625 C9.64587891 -0.07087891 10.47925781 -0.07925781 11.33789062 -0.08789062 C12.14033203 -0.09111328 12.94277344 -0.09433594 13.76953125 -0.09765625 C14.87711792 -0.10551147 14.87711792 -0.10551147 16.00708008 -0.11352539 C18 0 18 0 21 1 C21 1.66 21 2.32 21 3 C21.99 3.33 22.98 3.66 24 4 C24.125 11.75 24.125 11.75 23 14 C22.01 13.67 21.02 13.34 20 13 C20.33 12.67 20.66 12.34 21 12 C20.71269945 9.66055264 20.38063221 7.3260857 20 5 C16.43913342 3.81304447 13.02668976 3.64904582 9.3125 3.4375 C8.61060547 3.39431641 7.90871094 3.35113281 7.18554688 3.30664062 C5.45724794 3.2008264 3.7286489 3.09993419 2 3 C2.02320313 3.67546875 2.04640625 4.3509375 2.0703125 5.046875 C2.08835937 5.93890625 2.10640625 6.8309375 2.125 7.75 C2.14820313 8.63171875 2.17140625 9.5134375 2.1953125 10.421875 C2 13 2 13 0 17 C0 11.39 0 5.78 0 0 Z " fill="#999999" transform="translate(898,954)"/>
<path d="M0 0 C1.32 0 2.64 0 4 0 C4 9.57 4 19.14 4 29 C2.68 29 1.36 29 0 29 C0 19.43 0 9.86 0 0 Z " fill="#888888" transform="translate(1097,954)"/>
<path d="M0 0 C2.55993768 2.55993768 3.61847135 5.21038188 5.125 8.5 C5.66382813 9.6653125 6.20265625 10.830625 6.7578125 12.03125 C8 15 8 15 8 17 C6.68 16.67 5.36 16.34 4 16 C3.67 14.68 3.34 13.36 3 12 C-6.405 12.495 -6.405 12.495 -16 13 C-16.66 14.32 -17.32 15.64 -18 17 C-18.99 17 -19.98 17 -21 17 C-20.39009109 13.44219804 -19.4216319 10.3171411 -18 7 C-17.5877417 7.4844458 -17.1754834 7.9688916 -16.75073242 8.46801758 C-14.66668126 10.29167133 -13.71459137 10.40922589 -10.98828125 10.51171875 C-10.23095703 10.54716797 -9.47363281 10.58261719 -8.69335938 10.61914062 C-7.51483398 10.65297852 -7.51483398 10.65297852 -6.3125 10.6875 C-5.51521484 10.72166016 -4.71792969 10.75582031 -3.89648438 10.79101562 C-1.93148096 10.87338104 0.03423696 10.93837067 2 11 C0.68 8.36 -0.64 5.72 -2 3 C-1.34 2.01 -0.68 1.02 0 0 Z " fill="#8B8B8B" transform="translate(851,966)"/>
<path d="M0 0 C4.29 0 8.58 0 13 0 C13.33 1.65 13.66 3.3 14 5 C15.37003406 6.94820359 15.37003406 6.94820359 17.0625 8.625 C20 11.68 20 11.68 20 15 C16.16679688 13.47710215 14.27077384 11.15682488 11.6875 8 C7.94376739 3.69842644 5.64975965 1.72124591 0 1 C0 0.67 0 0.34 0 0 Z " fill="#979797" transform="translate(902,968)"/>
<path d="M0 0 C2.375 0.25 2.375 0.25 5 1 C7.19619246 4.17869962 7.11854805 6.49903485 6.625 10.25 C6.45871094 11.58804688 6.45871094 11.58804688 6.2890625 12.953125 C6.14597656 13.96632813 6.14597656 13.96632813 6 15 C5.34 15 4.68 15 4 15 C2.4921875 12.91796875 2.4921875 12.91796875 0.875 10.1875 C0.33617187 9.29417969 -0.20265625 8.40085937 -0.7578125 7.48046875 C-2 5 -2 5 -2 2 C-1.34 2 -0.68 2 0 2 C0 1.34 0 0.68 0 0 Z " fill="#292929" transform="translate(1105,678)"/>
<path d="M0 0 C0.15339844 0.61875 0.30679688 1.2375 0.46484375 1.875 C0.81232176 3.25476671 1.17727013 4.6302938 1.5625 6 C2 8 2 8 2 12 C-0.97411124 13.23921302 -3.85262818 14.30058404 -7 15 C-5.67231025 9.20644472 -3.33455096 4.9000081 0 0 Z " fill="#2C2C2C" transform="translate(862,686)"/>
<path d="M0 0 C4.59506182 3.55015735 7.76454254 6.47710509 10 12 C7.64046906 14.35953094 6.22104383 14.49141413 3 15 C3 14.34 3 13.68 3 13 C3.99 13 4.98 13 6 13 C6 12.34 6 11.68 6 11 C5.34 10.67 4.68 10.34 4 10 C4.33 9.34 4.66 8.68 5 8 C4.34 8 3.68 8 3 8 C3 8.66 3 9.32 3 10 C2.34 10 1.68 10 1 10 C0.855625 9.236875 0.71125 8.47375 0.5625 7.6875 C0.0367406 4.91827092 0.0367406 4.91827092 -1 2 C-0.67 1.34 -0.34 0.68 0 0 Z " fill="#363636" transform="translate(545,679)"/>
<path d="M0 0 C0 0.66 0 1.32 0 2 C0.66 2.33 1.32 2.66 2 3 C2 3.66 2 4.32 2 5 C-4.75 6.125 -4.75 6.125 -7 5 C-6.67 4.34 -6.34 3.68 -6 3 C-6.99 2.67 -7.98 2.34 -9 2 C-9 1.34 -9 0.68 -9 0 C-5.62182575 -0.84454356 -3.32534757 -1.10844919 0 0 Z " fill="#2F2F2F" transform="translate(639,927)"/>
<path d="M0 0 C6.93 0.495 6.93 0.495 14 1 C13.34 2.65 12.68 4.3 12 6 C8.37 5.34 4.74 4.68 1 4 C0.67 2.68 0.34 1.36 0 0 Z " fill="#2F2F2F" transform="translate(595,912)"/>
<path d="M0 0 C0.99 0.33 1.98 0.66 3 1 C1.86180149 4.41459553 0.75994482 5.3324158 -1.9375 7.625 C-2.64777344 8.23601563 -3.35804688 8.84703125 -4.08984375 9.4765625 C-6 11 -6 11 -8 12 C-8.33 10.68 -8.66 9.36 -9 8 C-8.34 8 -7.68 8 -7 8 C-7 7.34 -7 6.68 -7 6 C-6.01 6 -5.02 6 -4 6 C-4 5.01 -4 4.02 -4 3 C-2.1875 1.25 -2.1875 1.25 0 0 Z " fill="#323232" transform="translate(686,666)"/>
<path d="M0 0 C1.31611677 0.95336021 2.62778961 1.91285774 3.9375 2.875 C4.66839844 3.40867187 5.39929687 3.94234375 6.15234375 4.4921875 C8 6 8 6 9 8 C8.34 8 7.68 8 7 8 C6.67 8.66 6.34 9.32 6 10 C5.34 9.01 4.68 8.02 4 7 C0.93443402 6.26656572 0.93443402 6.26656572 -2 6 C-2 4.35 -2 2.7 -2 1 C-1.34 0.67 -0.68 0.34 0 0 Z " fill="#2B2B2B" transform="translate(1399,678)"/>
<path d="M0 0 C2.6244603 2.3745117 4.50692877 4.77810946 6 8 C5.1875 10.3125 5.1875 10.3125 4 12 C3.5875 11.21625 3.175 10.4325 2.75 9.625 C0.9607223 6.94108344 -0.04988139 6.11901051 -3 5 C-2.625 3.0625 -2.625 3.0625 -2 1 C-1.34 0.67 -0.68 0.34 0 0 Z " fill="#303030" transform="translate(1409,688)"/>
<path d="M0 0 C0.66 0.33 1.32 0.66 2 1 C1.67 1.66 1.34 2.32 1 3 C1.66 3 2.32 3 3 3 C3 3.66 3 4.32 3 5 C3.66 5.33 4.32 5.66 5 6 C3.02 7.32 1.04 8.64 -1 10 C-1.99 8.35 -2.98 6.7 -4 5 C-2.68 3.35 -1.36 1.7 0 0 Z " fill="#2D2D2D" transform="translate(453,663)"/>
<path d="M0 0 C0 0.99 0 1.98 0 3 C-3 5 -3 5 -5.6875 4.625 C-6.450625 4.41875 -7.21375 4.2125 -8 4 C-8 3.67 -8 3.34 -8 3 C-11.96 2.67 -15.92 2.34 -20 2 C-20 1.67 -20 1.34 -20 1 C-17.79187393 0.83060951 -15.58348776 0.66460778 -13.375 0.5 C-12.14523437 0.4071875 -10.91546875 0.314375 -9.6484375 0.21875 C-6.41962143 0.02515931 -3.23321325 -0.03979339 0 0 Z " fill="#1F1F1F" transform="translate(633,928)"/>
<path d="M0 0 C3.52269485 -0.4025937 4.79940808 -0.13372795 7.8125 1.875 C8.534375 2.57625 9.25625 3.2775 10 4 C10 4.66 10 5.32 10 6 C7.83125748 5.49396008 6.00032373 5.00016187 4 4 C2.29297265 3.93003986 0.58331997 3.91559846 -1.125 3.9375 C-2.03507812 3.94652344 -2.94515625 3.95554687 -3.8828125 3.96484375 C-4.93082031 3.98224609 -4.93082031 3.98224609 -6 4 C-6 3.34 -6 2.68 -6 2 C-4.02 1.67 -2.04 1.34 0 1 C0 0.67 0 0.34 0 0 Z " fill="#969696" transform="translate(1288,954)"/>
<path d="M0 0 C6.64615385 2.46153846 6.64615385 2.46153846 8.4375 5.1875 C8.623125 5.785625 8.80875 6.38375 9 7 C8.34 7 7.68 7 7 7 C6.67 7.99 6.34 8.98 6 10 C5.979375 9.401875 5.95875 8.80375 5.9375 8.1875 C5.09543384 5.56685398 5.09543384 5.56685398 1.4375 4.25 C0.303125 3.8375 -0.83125 3.425 -2 3 C-1.34 2.67 -0.68 2.34 0 2 C0 1.34 0 0.68 0 0 Z " fill="#949494" transform="translate(1420,967)"/>
<path d="M0 0 C0.99 0 1.98 0 3 0 C2.67 0.99 2.34 1.98 2 3 C1.85013589 4.9906444 1.75171962 6.98535391 1.68359375 8.98046875 C1.64169922 10.14384766 1.59980469 11.30722656 1.55664062 12.50585938 C1.51732422 13.72080078 1.47800781 14.93574219 1.4375 16.1875 C1.39431641 17.41404297 1.35113281 18.64058594 1.30664062 19.90429688 C1.2004691 22.93608381 1.09842048 25.96795315 1 29 C0.67 29 0.34 29 0 29 C0 19.43 0 9.86 0 0 Z " fill="#909090" transform="translate(1028,954)"/>
<path d="M0 0 C0.99 0.33 1.98 0.66 3 1 C4.52160014 4.6037898 5 7.05220686 5 11 C4.34 11 3.68 11 3 11 C-1.06153846 4.6 -1.06153846 4.6 -0.75 1.5625 C-0.5025 1.046875 -0.255 0.53125 0 0 Z " fill="#303030" transform="translate(1106,682)"/>
<path d="M0 0 C0.66 0.99 1.32 1.98 2 3 C1.34 3 0.68 3 0 3 C0 3.66 0 4.32 0 5 C0.66 5.33 1.32 5.66 2 6 C-1.28696233 6.79953138 -2.71023192 7.09658936 -6 6 C-6 4.66666667 -6 3.33333333 -6 2 C-4.02 1.34 -2.04 0.68 0 0 Z " fill="#353535" transform="translate(852,926)"/>
<path d="M0 0 C1.98 0.66 3.96 1.32 6 2 C6 2.99 6 3.98 6 5 C5.34 5 4.68 5 4 5 C3.67 5.66 3.34 6.32 3 7 C1.68 6.34 0.36 5.68 -1 5 C-0.67 3.35 -0.34 1.7 0 0 Z " fill="#2D2D2D" transform="translate(1410,958)"/>
<path d="M0 0 C2.375 2 2.375 2 4 4 C3.34 4.66 2.68 5.32 2 6 C1.34 5.34 0.68 4.68 0 4 C-2.19704511 3.32348793 -2.19704511 3.32348793 -4.625 2.875 C-5.85089844 2.62363281 -5.85089844 2.62363281 -7.1015625 2.3671875 C-7.72804688 2.24601563 -8.35453125 2.12484375 -9 2 C-5.50875983 -0.32749345 -4.10777749 -0.50299316 0 0 Z " fill="#2E2E2E" transform="translate(981,951)"/>
<path d="M0 0 C2.875 0.6875 2.875 0.6875 6 2 C7.64407322 4.71629488 8.13421594 6.17233506 7.625 9.3125 C7.41875 9.869375 7.2125 10.42625 7 11 C4.04250209 7.53258866 1.92151848 4.13126473 0 0 Z " fill="#EEEEEE" transform="translate(781,683)"/>
<path d="M0 0 C0.33 0.66 0.66 1.32 1 2 C-2.20336822 4.83374881 -4.78087253 5.5205537 -9 6 C-8.34 4.35 -7.68 2.7 -7 1 C-3.535 0.505 -3.535 0.505 0 0 Z " fill="#2F2F2F" transform="translate(712,655)"/>
<path d="M0 0 C0.99 0.99 1.98 1.98 3 3 C2.01 5.31 1.02 7.62 0 10 C-0.99 10 -1.98 10 -3 10 C-2.39009109 6.44219804 -1.4216319 3.3171411 0 0 Z " fill="#979797" transform="translate(833,973)"/>
<path d="M0 0 C0.66 0.66 1.32 1.32 2 2 C1.01 3.485 1.01 3.485 0 5 C-0.99 5 -1.98 5 -3 5 C-3 4.34 -3 3.68 -3 3 C-7.62 3 -12.24 3 -17 3 C-17 2.67 -17 2.34 -17 2 C-15.85660156 1.93941406 -14.71320312 1.87882813 -13.53515625 1.81640625 C-12.04425695 1.73201572 -10.55337225 1.64736698 -9.0625 1.5625 C-8.30775391 1.52318359 -7.55300781 1.48386719 -6.77539062 1.44335938 C-3.08055813 1.55961976 -3.08055813 1.55961976 0 0 Z " fill="#7F7F7F" transform="translate(918,965)"/>
<path d="M0 0 C0.99 0.33 1.98 0.66 3 1 C-1.95912807 6.13623978 -1.95912807 6.13623978 -5 8 C-5.99 7.67 -6.98 7.34 -8 7 C-5.42215154 4.35247996 -3.08351902 2.05567935 0 0 Z " fill="#2F2F2F" transform="translate(465,675)"/>
<path d="M0 0 C-0.33 1.65 -0.66 3.3 -1 5 C-2.65 5.33 -4.3 5.66 -6 6 C-6.33 5.34 -6.66 4.68 -7 4 C-3.375 0 -3.375 0 0 0 Z " fill="#2F2F2F" transform="translate(974,957)"/>
<path d="M0 0 C-0.66 1.65 -1.32 3.3 -2 5 C-3.98 5 -5.96 5 -8 5 C-5.96115496 0.48541456 -5.19128917 0 0 0 Z " fill="#2D2D2D" transform="translate(1287,957)"/>
<path d="M0 0 C0.66 0 1.32 0 2 0 C3.32 2.64 4.64 5.28 6 8 C5.01 8.495 5.01 8.495 4 9 C3.34 8.34 2.68 7.68 2 7 C1.01 6.67 0.02 6.34 -1 6 C-0.67 4.02 -0.34 2.04 0 0 Z " fill="#2E2E2E" transform="translate(563,900)"/>
<path d="M0 0 C-0.8125 1.9375 -0.8125 1.9375 -2 4 C-5.69418201 5.231394 -8.2056261 4.64432764 -12 4 C-12 3.67 -12 3.34 -12 3 C-10.88625 2.690625 -9.7725 2.38125 -8.625 2.0625 C-1.58823529 0 -1.58823529 0 0 0 Z " fill="#939393" transform="translate(1299,977)"/>
<path d="M0 0 C-0.8125 1.9375 -0.8125 1.9375 -2 4 C-5.69418201 5.231394 -8.2056261 4.64432764 -12 4 C-12 3.67 -12 3.34 -12 3 C-10.88625 2.690625 -9.7725 2.38125 -8.625 2.0625 C-1.58823529 0 -1.58823529 0 0 0 Z " fill="#949494" transform="translate(987,977)"/>
<path d="M0 0 C4.29 0 8.58 0 13 0 C12.67 0.66 12.34 1.32 12 2 C11.34 1.67 10.68 1.34 10 1 C10 1.66 10 2.32 10 3 C6.7 2.34 3.4 1.68 0 1 C0 0.67 0 0.34 0 0 Z " fill="#A7A7A7" transform="translate(902,968)"/>
<path d="M0 0 C2.89932357 2.39509338 3.50168276 4.31245243 4 8 C3.01 8 2.02 8 1 8 C0.26919734 6.02253397 -0.39421747 4.01927511 -1 2 C-0.67 1.34 -0.34 0.68 0 0 Z " fill="#9F9F9F" transform="translate(847,959)"/>
<path d="M0 0 C2.4375 0.8125 2.4375 0.8125 5 2 C5.33 2.99 5.66 3.98 6 5 C2.7 5.66 -0.6 6.32 -4 7 C-3 4 -3 4 0 2 C0 1.34 0 0.68 0 0 Z " fill="#373737" transform="translate(437,926)"/>
<path d="M0 0 C0.66 0.66 1.32 1.32 2 2 C1.54545455 7.45454545 1.54545455 7.45454545 -1 10 C-1.66 9.67 -2.32 9.34 -3 9 C-2.01 6.03 -1.02 3.06 0 0 Z " fill="#353535" transform="translate(664,886)"/>
<path d="M0 0 C1.65 0 3.3 0 5 0 C5.33 1.32 5.66 2.64 6 4 C4.68 4.99 3.36 5.98 2 7 C1.67 6.01 1.34 5.02 1 4 C1.33 3.34 1.66 2.68 2 2 C1.34 2 0.68 2 0 2 C0 1.34 0 0.68 0 0 Z " fill="#2F2F2F" transform="translate(443,673)"/>
<path d="M0 0 C-0.99 1.485 -0.99 1.485 -2 3 C-8.93 2.505 -8.93 2.505 -16 2 C-16 1.67 -16 1.34 -16 1 C-10.65097076 0.40801257 -5.39115154 -0.14187241 0 0 Z " fill="#2F2F2F" transform="translate(513,666)"/>
<path d="M0 0 C2 1 4 2 6 3 C6 3.99 6 4.98 6 6 C4.948125 5.5359375 4.948125 5.5359375 3.875 5.0625 C0.91063343 3.96697322 -1.87698108 3.43577008 -5 3 C-5 2.67 -5 2.34 -5 2 C-3.35 1.67 -1.7 1.34 0 1 C0 0.67 0 0.34 0 0 Z " fill="#969696" transform="translate(979,954)"/>
<path d="M0 0 C2.31 0.33 4.62 0.66 7 1 C7 1.33 7 1.66 7 2 C5.35 2.33 3.7 2.66 2 3 C2 3.99 2 4.98 2 6 C1.01 6.33 0.02 6.66 -1 7 C-1.66 5.68 -2.32 4.36 -3 3 C-2.34 2.67 -1.68 2.34 -1 2 C-0.67 1.34 -0.34 0.68 0 0 Z " fill="#353535" transform="translate(1157,927)"/>
<path d="M0 0 C3.73487777 0.4979837 5.81237635 0.87491756 9 3 C8.34 3 7.68 3 7 3 C7 3.66 7 4.32 7 5 C4.0625 4.1875 4.0625 4.1875 1 3 C0.67 2.01 0.34 1.02 0 0 Z " fill="#2C2C2C" transform="translate(1069,671)"/>
<path d="M0 0 C0.66 0.33 1.32 0.66 2 1 C-0.42048906 4.63073358 -1.85193707 4.98414785 -6 6 C-6.99 5.67 -7.98 5.34 -9 5 C-7.54735962 4.1361871 -6.0876837 3.28419546 -4.625 2.4375 C-3.40683594 1.72400391 -3.40683594 1.72400391 -2.1640625 0.99609375 C-1.44992187 0.66738281 -0.73578125 0.33867188 0 0 Z " fill="#E8E8E8" transform="translate(467,663)"/>
<path d="M0 0 C0.99 0.495 0.99 0.495 2 1 C2.4140625 3.06640625 2.4140625 3.06640625 2.625 5.5625 C2.69976563 6.38878906 2.77453125 7.21507812 2.8515625 8.06640625 C2.92503906 9.02353516 2.92503906 9.02353516 3 10 C2.01 9.67 1.02 9.34 0 9 C0 6.03 0 3.06 0 0 Z " fill="#A4A4A4" transform="translate(1275,965)"/>
<path d="M0 0 C0.66 0 1.32 0 2 0 C2 0.66 2 1.32 2 2 C2.66 2 3.32 2 4 2 C4.66 3.65 5.32 5.3 6 7 C5.01 7 4.02 7 3 7 C0.64276511 4.46815512 0 3.52809907 0 0 Z " fill="#323232" transform="translate(786,672)"/>
<path d="M0 0 C0.66 0 1.32 0 2 0 C2 0.66 2 1.32 2 2 C3.32 2.66 4.64 3.32 6 4 C5.67 5.32 5.34 6.64 5 8 C3.0625 7.375 3.0625 7.375 1 6 C0.25 2.875 0.25 2.875 0 0 Z " fill="#EFEFEF" transform="translate(770,670)"/>
<path d="M0 0 C-2.39763185 2.39763185 -3.33273498 2.34280586 -6.625 2.625 C-7.44226563 2.69976563 -8.25953125 2.77453125 -9.1015625 2.8515625 C-9.72804688 2.90054688 -10.35453125 2.94953125 -11 3 C-7.68381684 -0.31618316 -4.50821267 -1.6697084 0 0 Z " fill="#3A3A3A" transform="translate(481,670)"/>
<path d="M0 0 C-0.33 2.31 -0.66 4.62 -1 7 C-1.99 7 -2.98 7 -4 7 C-4 5.02 -4 3.04 -4 1 C-2 0 -2 0 0 0 Z " fill="#9F9F9F" transform="translate(1410,957)"/>
<path d="M0 0 C0.33 0.66 0.66 1.32 1 2 C3.01669827 3.13350534 3.01669827 3.13350534 5 4 C4.01 4.99 3.02 5.98 2 7 C0.68 5.35 -0.64 3.7 -2 2 C-1.34 2 -0.68 2 0 2 C0 1.34 0 0.68 0 0 Z " fill="#343434" transform="translate(1412,672)"/>
<path d="M0 0 C1.98 0.99 3.96 1.98 6 3 C5.01 4.485 5.01 4.485 4 6 C3.34 6 2.68 6 2 6 C2 5.34 2 4.68 2 4 C1.01 3.67 0.02 3.34 -1 3 C-0.67 2.01 -0.34 1.02 0 0 Z " fill="#2C2C2C" transform="translate(767,673)"/>
<path d="M0 0 C2.62187494 1.04874998 3.79371361 1.64931313 5.25 4.125 C5.4975 4.74375 5.745 5.3625 6 6 C3.13275314 5.42655063 2.1385485 5.1385485 0 3 C0 2.01 0 1.02 0 0 Z " fill="#9F9F9F" transform="translate(1406,975)"/>
<path d="M0 0 C0.66 0 1.32 0 2 0 C2.66 1.32 3.32 2.64 4 4 C2.6875 5.5 2.6875 5.5 1 7 C0.01 7 -0.98 7 -2 7 C-1.34 4.69 -0.68 2.38 0 0 Z " fill="#343434" transform="translate(789,924)"/>
<path d="M0 0 C0.33 0.99 0.66 1.98 1 3 C-1.35953094 5.35953094 -2.77895617 5.49141413 -6 6 C-6 5.34 -6 4.68 -6 4 C-5.01 4 -4.02 4 -3 4 C-3 3.34 -3 2.68 -3 2 C-3.66 1.67 -4.32 1.34 -5 1 C-2 0 -2 0 0 0 Z " fill="#303030" transform="translate(554,688)"/>
<path d="M0 0 C2.88575819 0.39803561 3.82189513 0.79009069 5.75 3.0625 C6.1625 3.701875 6.575 4.34125 7 5 C6.34 5 5.68 5 5 5 C4.67 5.66 4.34 6.32 4 7 C2.02 3.535 2.02 3.535 0 0 Z " fill="#3A3A3A" transform="translate(1401,681)"/>
<path d="M0 0 C0 0.66 0 1.32 0 2 C0.66 2 1.32 2 2 2 C2.33 2.99 2.66 3.98 3 5 C2.01 5.33 1.02 5.66 0 6 C-1.32 4.35 -2.64 2.7 -4 1 C-2 0 -2 0 0 0 Z " fill="#373737" transform="translate(1101,674)"/>
<path d="M0 0 C0.66 0 1.32 0 2 0 C2 0.66 2 1.32 2 2 C1.34 2 0.68 2 0 2 C0.33 3.32 0.66 4.64 1 6 C0.01 6.33 -0.98 6.66 -2 7 C-2.66 6.67 -3.32 6.34 -4 6 C-2.84826645 3.53199953 -1.95216435 1.95216435 0 0 Z " fill="#EDEDED" transform="translate(686,670)"/>
<path d="M0 0 C1.3921875 0.3403125 1.3921875 0.3403125 2.8125 0.6875 C0.25258376 2.69886276 -2.23340299 4.31595496 -5.1875 5.6875 C-5.5175 4.6975 -5.8475 3.7075 -6.1875 2.6875 C-4.14987265 -0.14253799 -3.59070275 -0.35202968 0 0 Z " fill="#2F2F2F" transform="translate(1188.1875,662.3125)"/>
<path d="M0 0 C1.65 0 3.3 0 5 0 C5.33 1.65 5.66 3.3 6 5 C5.01 5 4.02 5 3 5 C1.3125 2.5 1.3125 2.5 0 0 Z " fill="#9B9B9B" transform="translate(1422,956)"/>
<path d="M0 0 C0.99 0.33 1.98 0.66 3 1 C2.67 2.98 2.34 4.96 2 7 C0.68 6.34 -0.64 5.68 -2 5 C-1.34 3.35 -0.68 1.7 0 0 Z " fill="#353535" transform="translate(1387,655)"/>
<path d="M0 0 C0.66 0.33 1.32 0.66 2 1 C2.125 6.75 2.125 6.75 1 9 C0.01 8.67 -0.98 8.34 -2 8 C-1.67 7.34 -1.34 6.68 -1 6 C-0.64080679 4.00448218 -0.30503431 2.00451121 0 0 Z " fill="#A3A3A3" transform="translate(920,959)"/>
<path d="M0 0 C0.99 0 1.98 0 3 0 C2.34 4.29 1.68 8.58 1 13 C0.67 13 0.34 13 0 13 C0 8.71 0 4.42 0 0 Z " fill="#979797" transform="translate(1049,954)"/>
<path d="M0 0 C0 2.62113708 -0.31292445 4.50935112 -1 7 C-2.32 7.33 -3.64 7.66 -5 8 C-3.62845496 5.04590299 -2.01136276 2.55991624 0 0 Z " fill="#202020" transform="translate(663,887)"/>
<path d="M0 0 C2.475 0.99 2.475 0.99 5 2 C3.74458443 4.51083114 2.49936512 4.87125446 0 6 C-1.125 2.25 -1.125 2.25 0 0 Z " fill="#1E1E1E" transform="translate(780,687)"/>
<path d="M0 0 C1.32 0.66 2.64 1.32 4 2 C3.01 2.495 3.01 2.495 2 3 C1.67 3.66 1.34 4.32 1 5 C1 4.34 1 3.68 1 3 C-1.475 4.485 -1.475 4.485 -4 6 C-2.84826645 3.53199953 -1.95216435 1.95216435 0 0 Z " fill="#F0F0F0" transform="translate(449,676)"/>
<path d="M0 0 C0.66 0.33 1.32 0.66 2 1 C1.67 1.66 1.34 2.32 1 3 C1.66 3.33 2.32 3.66 3 4 C2.34 4 1.68 4 1 4 C0.67 4.99 0.34 5.98 0 7 C-0.66 5.68 -1.32 4.36 -2 3 C-1.34 2.01 -0.68 1.02 0 0 Z " fill="#9B9B9B" transform="translate(842,955)"/>
<path d="M0 0 C0 1.32 0 2.64 0 4 C-2.97 3.67 -5.94 3.34 -9 3 C-9 2.67 -9 2.34 -9 2 C-3.375 0 -3.375 0 0 0 Z " fill="#202020" transform="translate(1168,927)"/>
<path d="M0 0 C0.99 0.495 0.99 0.495 2 1 C4.3329866 1.04022391 6.66706666 1.04320247 9 1 C9.33 1.99 9.66 2.98 10 4 C6.7 4 3.4 4 0 4 C0 2.68 0 1.36 0 0 Z " fill="#454545" transform="translate(260,926)"/>
<path d="M0 0 C2.475 0.99 2.475 0.99 5 2 C4.67 2.66 4.34 3.32 4 4 C2.35 4 0.7 4 -1 4 C-0.67 2.68 -0.34 1.36 0 0 Z " fill="#303030" transform="translate(583,920)"/>
<path d="M0 0 C1.32 0.66 2.64 1.32 4 2 C2.71034824 3.37562854 1.37310707 4.70766393 0 6 C-0.66 6 -1.32 6 -2 6 C-1.34 4.02 -0.68 2.04 0 0 Z " fill="#333333" transform="translate(1172,692)"/>
<path d="M0 0 C1.32 0.33 2.64 0.66 4 1 C4 1.66 4 2.32 4 3 C2.02 3.99 0.04 4.98 -2 6 C-1.34 4.02 -0.68 2.04 0 0 Z " fill="#E3E3E3" transform="translate(1163,688)"/>
<path d="M0 0 C0.66 0.66 1.32 1.32 2 2 C1.01 3.485 1.01 3.485 0 5 C-1.32 4.67 -2.64 4.34 -4 4 C-3.67 3.01 -3.34 2.02 -3 1 C-2.01 0.67 -1.02 0.34 0 0 Z " fill="#303030" transform="translate(1166,680)"/>
<path d="M0 0 C1.32 0 2.64 0 4 0 C4 0.66 4 1.32 4 2 C2.68 2 1.36 2 0 2 C0 1.34 0 0.68 0 0 Z M-1 2 C-0.34 3.32 0.32 4.64 1 6 C0.34 6.66 -0.32 7.32 -1 8 C-1.66 6.68 -2.32 5.36 -3 4 C-2.34 4 -1.68 4 -1 4 C-1 3.34 -1 2.68 -1 2 Z " fill="#373737" transform="translate(1420,678)"/>
<path d="M0 0 C1.32 1.32 2.64 2.64 4 4 C3.67 4.99 3.34 5.98 3 7 C2.01 6.34 1.02 5.68 0 5 C0 3.33333333 0 1.66666667 0 0 Z " fill="#ECECEC" transform="translate(1406,671)"/>
</svg>
